HIERARCHY
ROOT mixamorig1:Hips
{
	OFFSET -0.000023 -3.007842 99.754364
	CHANNELS 6 Xposition Yposition Zposition Zrotation Yrotation Xrotation
	JOINT mixamorig1:Spine
	{
		OFFSET 0.000000 1.180212 9.717224
		CHANNELS 6 Xposition Yposition Zposition Zrotation Yrotation Xrotation
		JOINT mixamorig1:Spine1
		{
			OFFSET 0.000000 1.376937 11.336823
			CHANNELS 6 Xposition Yposition Zposition Zrotation Yrotation Xrotation
			JOINT mixamorig1:Spine2
			{
				OFFSET 0.000000 1.573658 12.956345
				CHANNELS 6 Xposition Yposition Zposition Zrotation Yrotation Xrotation
				JOINT mixamorig1:Neck
				{
					OFFSET 0.000000 1.770442 14.575974
					CHANNELS 6 Xposition Yposition Zposition Zrotation Yrotation Xrotation
					JOINT mixamorig1:Head
					{
						OFFSET 0.000000 -1.972157 6.720200
						CHANNELS 6 Xposition Yposition Zposition Zrotation Yrotation Xrotation
						JOINT mixamorig1:HeadTop_End
						{
							OFFSET 0.000000 -6.162756 20.999847
							CHANNELS 6 Xposition Yposition Zposition Zrotation Yrotation Xrotation
							End Site
							{
								OFFSET 0.000000 0.000005 21.885452
							}
						}
					}
				}
				JOINT mixamorig1:LeftShoulder
				{
					OFFSET 6.140116 1.799549 12.877853
					CHANNELS 6 Xposition Yposition Zposition Zrotation Yrotation Xrotation
					JOINT mixamorig1:LeftArm
					{
						OFFSET 12.545031 0.058010 -3.431427
						CHANNELS 6 Xposition Yposition Zposition Zrotation Yrotation Xrotation
						JOINT mixamorig1:LeftForeArm
						{
							OFFSET 25.447281 1.505625 -1.876373
							CHANNELS 6 Xposition Yposition Zposition Zrotation Yrotation Xrotation
							JOINT mixamorig1:LeftHand
							{
								OFFSET 23.367504 -0.971305 0.877640
								CHANNELS 6 Xposition Yposition Zposition Zrotation Yrotation Xrotation
								JOINT mixamorig1:LeftHandThumb1
								{
									OFFSET 3.575478 -3.039434 -1.761887
									CHANNELS 6 Xposition Yposition Zposition Zrotation Yrotation Xrotation
									JOINT mixamorig1:LeftHandThumb2
									{
										OFFSET 2.860405 -2.431552 -1.409454
										CHANNELS 6 Xposition Yposition Zposition Zrotation Yrotation Xrotation
										JOINT mixamorig1:LeftHandThumb3
										{
											OFFSET 2.578941 -1.750709 -1.801514
											CHANNELS 6 Xposition Yposition Zposition Zrotation Yrotation Xrotation
											JOINT mixamorig1:LeftHandThumb4
											{
												OFFSET 2.408989 -1.064221 -1.461151
												CHANNELS 6 Xposition Yposition Zposition Zrotation Yrotation Xrotation
												End Site
												{
													OFFSET 2.176476 -1.440013 -1.503357
												}
											}
										}
									}
								}
								JOINT mixamorig1:LeftHandIndex1
								{
									OFFSET 11.357018 -4.439679 -1.306473
									CHANNELS 6 Xposition Yposition Zposition Zrotation Yrotation Xrotation
									JOINT mixamorig1:LeftHandIndex2
									{
										OFFSET 3.215240 -0.624045 -0.390930
										CHANNELS 6 Xposition Yposition Zposition Zrotation Yrotation Xrotation
										JOINT mixamorig1:LeftHandIndex3
										{
											OFFSET 2.938980 -0.560646 -0.735489
											CHANNELS 6 Xposition Yposition Zposition Zrotation Yrotation Xrotation
											JOINT mixamorig1:LeftHandIndex4
											{
												OFFSET 2.552437 -0.483288 -0.779205
												CHANNELS 6 Xposition Yposition Zposition Zrotation Yrotation Xrotation
												End Site
												{
													OFFSET 2.555870 -0.467434 -0.777603
												}
											}
										}
									}
								}
								JOINT mixamorig1:LeftHandMiddle1
								{
									OFFSET 12.195602 -2.108765 -0.657242
									CHANNELS 6 Xposition Yposition Zposition Zrotation Yrotation Xrotation
									JOINT mixamorig1:LeftHandMiddle2
									{
										OFFSET 3.379944 -0.236206 -0.547394
										CHANNELS 6 Xposition Yposition Zposition Zrotation Yrotation Xrotation
										JOINT mixamorig1:LeftHandMiddle3
										{
											OFFSET 3.043900 -0.195068 -0.829651
											CHANNELS 6 Xposition Yposition Zposition Zrotation Yrotation Xrotation
											JOINT mixamorig1:LeftHandMiddle4
											{
												OFFSET 2.806625 -0.188473 -0.600723
												CHANNELS 6 Xposition Yposition Zposition Zrotation Yrotation Xrotation
												End Site
												{
													OFFSET 2.806618 -0.188510 -0.600739
												}
											}
										}
									}
								}
								JOINT mixamorig1:LeftHandRing1
								{
									OFFSET 12.563576 0.154891 -0.458878
									CHANNELS 6 Xposition Yposition Zposition Zrotation Yrotation Xrotation
									JOINT mixamorig1:LeftHandRing2
									{
										OFFSET 2.596565 -0.032336 -0.829819
										CHANNELS 6 Xposition Yposition Zposition Zrotation Yrotation Xrotation
										JOINT mixamorig1:LeftHandRing3
										{
											OFFSET 2.548286 -0.044838 -0.608398
											CHANNELS 6 Xposition Yposition Zposition Zrotation Yrotation Xrotation
											JOINT mixamorig1:LeftHandRing4
											{
												OFFSET 2.167870 -0.038965 -0.507812
												CHANNELS 6 Xposition Yposition Zposition Zrotation Yrotation Xrotation
												End Site
												{
													OFFSET 2.167732 -0.042114 -0.508163
												}
											}
										}
									}
								}
								JOINT mixamorig1:LeftHandPinky1
								{
									OFFSET 11.341652 2.253323 -0.310532
									CHANNELS 6 Xposition Yposition Zposition Zrotation Yrotation Xrotation
									JOINT mixamorig1:LeftHandPinky2
									{
										OFFSET 2.648827 0.120024 -0.669128
										CHANNELS 6 Xposition Yposition Zposition Zrotation Yrotation Xrotation
										JOINT mixamorig1:LeftHandPinky3
										{
											OFFSET 2.075249 0.105192 -0.703857
											CHANNELS 6 Xposition Yposition Zposition Zrotation Yrotation Xrotation
											JOINT mixamorig1:LeftHandPinky4
											{
												OFFSET 1.850784 0.097376 -0.684036
												CHANNELS 6 Xposition Yposition Zposition Zrotation Yrotation Xrotation
												End Site
												{
													OFFSET 1.850731 0.102854 -0.683411
												}
											}
										}
									}
								}
							}
						}
					}
				}
				JOINT mixamorig1:RightShoulder
				{
					OFFSET -6.140133 1.741392 12.877823
					CHANNELS 6 Xposition Yposition Zposition Zrotation Yrotation Xrotation
					JOINT mixamorig1:RightArm
					{
						OFFSET -12.545002 -0.058123 -3.431366
						CHANNELS 6 Xposition Yposition Zposition Zrotation Yrotation Xrotation
						JOINT mixamorig1:RightForeArm
						{
							OFFSET -25.447330 1.671036 -1.876465
							CHANNELS 6 Xposition Yposition Zposition Zrotation Yrotation Xrotation
							JOINT mixamorig1:RightHand
							{
								OFFSET -23.367435 -0.912149 0.877640
								CHANNELS 6 Xposition Yposition Zposition Zrotation Yrotation Xrotation
								JOINT mixamorig1:RightHandThumb1
								{
									OFFSET -3.655281 -3.110017 -1.787811
									CHANNELS 6 Xposition Yposition Zposition Zrotation Yrotation Xrotation
									JOINT mixamorig1:RightHandThumb2
									{
										OFFSET -2.924309 -2.488113 -1.430252
										CHANNELS 6 Xposition Yposition Zposition Zrotation Yrotation Xrotation
										JOINT mixamorig1:RightHandThumb3
										{
											OFFSET -2.528549 -1.706924 -1.776962
											CHANNELS 6 Xposition Yposition Zposition Zrotation Yrotation Xrotation
											JOINT mixamorig1:RightHandThumb4
											{
												OFFSET -2.443375 -1.073468 -1.162323
												CHANNELS 6 Xposition Yposition Zposition Zrotation Yrotation Xrotation
												End Site
												{
													OFFSET -2.204521 -1.472025 -1.202744
												}
											}
										}
									}
								}
								JOINT mixamorig1:RightHandIndex1
								{
									OFFSET -11.888382 -4.755188 -1.247833
									CHANNELS 6 Xposition Yposition Zposition Zrotation Yrotation Xrotation
									JOINT mixamorig1:RightHandIndex2
									{
										OFFSET -3.042244 -0.442817 -0.516434
										CHANNELS 6 Xposition Yposition Zposition Zrotation Yrotation Xrotation
										JOINT mixamorig1:RightHandIndex3
										{
											OFFSET -2.738869 -0.392164 -0.708374
											CHANNELS 6 Xposition Yposition Zposition Zrotation Yrotation Xrotation
											JOINT mixamorig1:RightHandIndex4
											{
												OFFSET -2.432571 -0.348507 -0.620773
												CHANNELS 6 Xposition Yposition Zposition Zrotation Yrotation Xrotation
												End Site
												{
													OFFSET -2.433441 -0.343348 -0.620270
												}
											}
										}
									}
								}
								JOINT mixamorig1:RightHandMiddle1
								{
									OFFSET -12.008347 -2.098396 -0.748550
									CHANNELS 6 Xposition Yposition Zposition Zrotation Yrotation Xrotation
									JOINT mixamorig1:RightHandMiddle2
									{
										OFFSET -3.442291 -0.287318 -0.415817
										CHANNELS 6 Xposition Yposition Zposition Zrotation Yrotation Xrotation
										JOINT mixamorig1:RightHandMiddle3
										{
											OFFSET -3.106178 -0.240102 -0.837677
											CHANNELS 6 Xposition Yposition Zposition Zrotation Yrotation Xrotation
											JOINT mixamorig1:RightHandMiddle4
											{
												OFFSET -2.855728 -0.227592 -0.604996
												CHANNELS 6 Xposition Yposition Zposition Zrotation Yrotation Xrotation
												End Site
												{
													OFFSET -2.855972 -0.225131 -0.604736
												}
											}
										}
									}
								}
								JOINT mixamorig1:RightHandRing1
								{
									OFFSET -12.328026 0.015787 -0.608994
									CHANNELS 6 Xposition Yposition Zposition Zrotation Yrotation Xrotation
									JOINT mixamorig1:RightHandRing2
									{
										OFFSET -2.763496 0.029507 -0.569153
										CHANNELS 6 Xposition Yposition Zposition Zrotation Yrotation Xrotation
										JOINT mixamorig1:RightHandRing3
										{
											OFFSET -2.573975 0.042469 -0.772354
											CHANNELS 6 Xposition Yposition Zposition Zrotation Yrotation Xrotation
											JOINT mixamorig1:RightHandRing4
											{
												OFFSET -2.323860 0.023427 -0.456833
												CHANNELS 6 Xposition Yposition Zposition Zrotation Yrotation Xrotation
												End Site
												{
													OFFSET -2.323814 0.019363 -0.457275
												}
											}
										}
									}
								}
								JOINT mixamorig1:RightHandPinky1
								{
									OFFSET -11.463135 2.202621 -0.329407
									CHANNELS 6 Xposition Yposition Zposition Zrotation Yrotation Xrotation
									JOINT mixamorig1:RightHandPinky2
									{
										OFFSET -2.569016 0.108848 -0.599854
										CHANNELS 6 Xposition Yposition Zposition Zrotation Yrotation Xrotation
										JOINT mixamorig1:RightHandPinky3
										{
											OFFSET -2.016190 0.102787 -0.737000
											CHANNELS 6 Xposition Yposition Zposition Zrotation Yrotation Xrotation
											JOINT mixamorig1:RightHandPinky4
											{
												OFFSET -1.796242 0.085258 -0.576553
												CHANNELS 6 Xposition Yposition Zposition Zrotation Yrotation Xrotation
												End Site
												{
													OFFSET -1.796211 0.087722 -0.576279
												}
											}
										}
									}
								}
							}
						}
					}
				}
			}
		}
	}
	JOINT mixamorig1:LeftUpLeg
	{
		OFFSET 8.078197 0.535866 -5.402374
		CHANNELS 6 Xposition Yposition Zposition Zrotation Yrotation Xrotation
		JOINT mixamorig1:LeftLeg
		{
			OFFSET 3.743073 2.695450 -42.540520
			CHANNELS 6 Xposition Yposition Zposition Zrotation Yrotation Xrotation
			JOINT mixamorig1:LeftFoot
			{
				OFFSET 3.359008 2.882237 -41.940849
				CHANNELS 6 Xposition Yposition Zposition Zrotation Yrotation Xrotation
				JOINT mixamorig1:LeftToeBase
				{
					OFFSET 1.133368 -13.321876 -9.116435
					CHANNELS 6 Xposition Yposition Zposition Zrotation Yrotation Xrotation
					JOINT mixamorig1:LeftToe_End
					{
						OFFSET 0.591574 -6.177378 -0.054443
						CHANNELS 6 Xposition Yposition Zposition Zrotation Yrotation Xrotation
						End Site
						{
							OFFSET 0.591574 -6.177376 -0.054443
						}
					}
				}
			}
		}
	}
	JOINT mixamorig1:RightUpLeg
	{
		OFFSET -8.078202 0.751774 -5.402405
		CHANNELS 6 Xposition Yposition Zposition Zrotation Yrotation Xrotation
		JOINT mixamorig1:RightLeg
		{
			OFFSET -3.743069 2.464508 -42.540482
			CHANNELS 6 Xposition Yposition Zposition Zrotation Yrotation Xrotation
			JOINT mixamorig1:RightFoot
			{
				OFFSET -3.359002 2.968966 -41.940781
				CHANNELS 6 Xposition Yposition Zposition Zrotation Yrotation Xrotation
				JOINT mixamorig1:RightToeBase
				{
					OFFSET -1.133408 -13.416489 -9.116796
					CHANNELS 6 Xposition Yposition Zposition Zrotation Yrotation Xrotation
					JOINT mixamorig1:RightToe_End
					{
						OFFSET -0.591589 -6.151403 -0.054615
						CHANNELS 6 Xposition Yposition Zposition Zrotation Yrotation Xrotation
						End Site
						{
							OFFSET -0.591589 -6.151402 -0.054615
						}
					}
				}
			}
		}
	}
}
MOTION
Frames: 3
Frame Time: 0.041667
-0.789014 3.828082 92.837334 9.251622 -1.377771 17.117904 0.000000 1.180209 9.717206 -7.350049 1.311115 6.683423 0.000000 1.376942 11.336825 -3.595710 0.649128 4.666483 0.000000 1.573654 12.956329 -3.504003 0.790722 4.720588 -0.000000 1.770442 14.575966 0.402147 -1.063475 -4.157972 0.000001 -1.972158 6.720218 0.448930 -1.091447 -4.148443 0.000003 -6.162765 20.999863 -0.000000 0.000001 0.000009 6.140115 1.799544 12.877833 -18.726022 10.669339 0.311053 12.545019 0.057995 -3.431431 -47.752342 24.881595 -37.831670 25.447277 1.505625 -1.876384 -62.129013 4.046406 -3.732801 23.367500 -0.971307 0.877635 -4.272522 -44.552538 -39.462682 3.575487 -3.039437 -1.761883 4.000718 2.600101 6.896143 2.860397 -2.431566 -1.409457 17.558975 -15.741916 -0.261407 2.578925 -1.750711 -1.801531 7.135307 -9.189723 -12.209226 2.408993 -1.064229 -1.461156 0.000014 -0.000007 -0.000008 11.357005 -4.439680 -1.306462 63.415834 65.824500 59.922008 3.215238 -0.624037 -0.390921 24.779877 46.567864 23.738708 2.938966 -0.560645 -0.735486 18.780006 41.234579 19.006538 2.552418 -0.483293 -0.779225 -0.000001 0.000003 0.000001 12.195598 -2.108767 -0.657234 52.221629 69.935325 46.733367 3.379930 -0.236204 -0.547399 23.477324 49.630135 18.004746 3.043910 -0.195083 -0.829649 19.921613 48.616713 15.725594 2.806620 -0.188469 -0.600730 -0.000001 0.000004 0.000001 12.563596 0.154882 -0.458852 32.688742 64.440608 27.383116 2.596573 -0.032340 -0.829828 32.164341 59.987154 24.910745 2.548292 -0.044847 -0.608391 17.724520 45.279581 11.393716 2.167872 -0.038955 -0.507812 0.000003 -0.000001 -0.000000 11.341677 2.253324 -0.310524 88.778164 69.658613 71.934897 2.648823 0.120021 -0.669113 23.688103 53.097675 14.060746 2.075280 0.105190 -0.703862 16.794033 44.992939 9.117725 1.850777 0.097374 -0.684056 0.000000 0.000003 0.000004 -6.140136 1.741388 12.877808 20.840934 -5.941035 1.135961 -12.545014 -0.058120 -3.431370 -17.486345 -54.524973 18.454435 -25.447323 1.671032 -1.876480 17.074370 -6.147442 -1.315923 -23.367435 -0.912140 0.877660 -26.101228 3.930335 1.647149 -3.655270 -3.110022 -1.787819 2.512720 -2.443885 5.358453 -2.924318 -2.488105 -1.430248 -19.327441 16.429784 -0.320059 -2.528546 -1.706932 -1.776951 -3.935750 3.742889 -8.738022 -2.443373 -1.073471 -1.162321 -0.000010 0.000001 -0.000012 -11.888369 -4.755195 -1.247834 -50.700853 -67.717508 49.674473 -3.042229 -0.442833 -0.516427 -22.564297 -50.413514 21.605217 -2.738887 -0.392174 -0.708378 -17.257417 -45.691384 17.091083 -2.432570 -0.348519 -0.620770 -0.000008 -0.000008 0.000003 -12.008339 -2.098406 -0.748540 -53.962596 -73.045158 50.865201 -3.442321 -0.287315 -0.415827 -19.374265 -48.619278 15.544706 -3.106172 -0.240102 -0.837674 -17.384959 -49.319570 14.836407 -2.855731 -0.227596 -0.605001 0.000009 -0.000003 0.000009 -12.328020 0.015775 -0.608981 -50.461745 -72.424922 47.355884 -2.763469 0.029496 -0.569160 -20.099843 -53.366242 12.833522 -2.573985 0.042478 -0.772340 -16.178095 -51.533210 9.928700 -2.323872 0.023428 -0.456852 0.000009 -0.000012 -0.000002 -11.463132 2.202612 -0.329404 -67.314308 -69.754919 54.520653 -2.569012 0.108840 -0.599857 -18.949163 -51.878996 10.732563 -2.016188 0.102781 -0.737013 -15.346376 -49.467744 8.409530 -1.796241 0.085265 -0.576549 -0.000001 0.000002 0.000009 8.078197 0.535864 -5.402383 5.159298 9.258621 -18.274243 3.743073 2.695453 -42.540512 11.182138 -5.625840 31.302948 3.359006 2.882234 -41.940853 -3.823626 -3.763315 -27.033745 1.133367 -13.321876 -9.116437 0.000012 0.000005 -10.748562 0.591571 -6.177376 -0.054442 -0.000001 -0.000003 0.000002 -8.078202 0.751768 -5.402411 -3.539068 -9.904746 -68.903160 -3.743070 2.464498 -42.540497 -0.496996 12.769968 119.176119 -3.359003 2.968964 -41.940777 4.986272 17.155823 27.821673 -1.133406 -13.416490 -9.116797 -0.000001 -0.000004 0.330298 -0.591589 -6.151398 -0.054615 0.000000 -0.000000 -0.000000 
-0.437798 3.856957 93.042236 5.987955 8.120881 16.431687 0.000001 1.180207 9.717216 -9.726262 -6.418651 8.966006 -0.000001 1.376935 11.336834 -4.218704 -0.852159 5.337440 -0.000001 1.573658 12.956336 -4.234007 -0.558770 5.379619 0.000000 1.770449 14.575975 2.025328 -1.205244 -3.686908 0.000002 -1.972142 6.720218 2.081352 -1.159241 -3.667120 0.000002 -6.162759 20.999878 0.000001 -0.000001 -0.000000 6.140118 1.799555 12.877872 -18.495510 -1.476633 1.490931 12.545013 0.057993 -3.431422 -45.032865 17.921158 -52.491066 25.447269 1.505623 -1.876389 -82.652864 2.605614 -4.157221 23.367519 -0.971299 0.877651 -12.555939 -44.941545 -31.374409 3.575484 -3.039445 -1.761868 4.000706 2.600101 6.896145 2.860401 -2.431558 -1.409461 17.558989 -15.741914 -0.261394 2.578944 -1.750727 -1.801503 7.135313 -9.189720 -12.209241 2.408978 -1.064230 -1.461140 0.000009 -0.000006 -0.000026 11.356990 -4.439696 -1.306454 63.415807 65.824521 59.921980 3.215235 -0.624033 -0.390933 24.779885 46.567871 23.738715 2.938943 -0.560627 -0.735460 18.780005 41.234579 19.006535 2.552446 -0.483311 -0.779218 0.000002 -0.000002 0.000004 12.195580 -2.108776 -0.657226 52.221646 69.935277 46.733397 3.379926 -0.236196 -0.547392 23.477302 49.630163 18.004749 3.043906 -0.195055 -0.829641 19.921597 48.616703 15.725578 2.806629 -0.188483 -0.600745 -0.000003 0.000004 0.000004 12.563577 0.154876 -0.458860 32.688701 64.440595 27.383077 2.596572 -0.032331 -0.829802 32.164317 59.987140 24.910704 2.548292 -0.044835 -0.608399 17.724512 45.279581 11.393719 2.167871 -0.038963 -0.507813 -0.000005 0.000000 0.000002 11.341673 2.253324 -0.310517 88.778129 69.658613 71.934856 2.648834 0.120026 -0.669114 23.688086 53.097662 14.060724 2.075261 0.105199 -0.703852 16.794042 44.992952 9.117761 1.850778 0.097370 -0.684066 0.000005 -0.000010 0.000005 -6.140131 1.741391 12.877812 23.350982 1.036238 2.230875 -12.544999 -0.058117 -3.431371 -38.094489 -42.177706 45.599815 -25.447327 1.671026 -1.876484 39.772410 -5.327889 -2.755314 -23.367432 -0.912156 0.877631 -22.142503 -5.414191 -9.380344 -3.655265 -3.110008 -1.787823 2.512719 -2.443877 5.358453 -2.924322 -2.488117 -1.430259 -19.327444 16.429776 -0.320077 -2.528544 -1.706925 -1.776959 -3.935739 3.742894 -8.738035 -2.443377 -1.073470 -1.162310 -0.000012 -0.000003 -0.000016 -11.888357 -4.755172 -1.247841 -50.700730 -67.717562 49.674368 -3.042252 -0.442816 -0.516431 -22.564290 -50.413507 21.605219 -2.738888 -0.392167 -0.708371 -17.257434 -45.691367 17.091106 -2.432563 -0.348499 -0.620779 0.000000 -0.000004 0.000000 -12.008338 -2.098389 -0.748554 -53.962401 -73.045219 50.865051 -3.442291 -0.287317 -0.415808 -19.374258 -48.619264 15.544706 -3.106160 -0.240094 -0.837690 -17.384961 -49.319560 14.836409 -2.855745 -0.227592 -0.604985 0.000008 -0.000003 -0.000003 -12.328001 0.015792 -0.608980 -50.461602 -72.424963 47.355768 -2.763481 0.029507 -0.569159 -20.099845 -53.366228 12.833541 -2.573977 0.042471 -0.772349 -16.178070 -51.533217 9.928677 -2.323858 0.023424 -0.456854 0.000005 -0.000004 0.000004 -11.463103 2.202636 -0.329415 -67.314301 -69.754919 54.520667 -2.569014 0.108863 -0.599864 -18.949158 -51.878985 10.732572 -2.016165 0.102784 -0.737006 -15.346363 -49.467748 8.409519 -1.796240 0.085254 -0.576567 0.000002 0.000001 0.000000 8.078197 0.535865 -5.402375 14.732699 -3.487168 -1.340549 3.743074 2.695454 -42.540527 10.666066 -2.642890 16.503694 3.359006 2.882239 -41.940842 -4.609227 3.130820 -14.190883 1.133371 -13.321884 -9.116429 0.000038 0.000027 -25.375182 0.591569 -6.177374 -0.054442 -0.000007 -0.000004 0.000000 -8.078203 0.751769 -5.402395 12.152098 -13.822325 -81.456536 -3.743073 2.464499 -42.540489 -1.777481 13.645810 103.506975 -3.359003 2.968966 -41.940773 -0.134871 22.590110 18.488948 -1.133407 -13.416491 -9.116798 0.000005 -0.000005 0.748243 -0.591590 -6.151399 -0.054614 0.000005 -0.000000 -0.000000 
-0.056211 4.331677 92.267700 2.443709 15.130163 18.085574 -0.000001 1.180212 9.717220 -12.097175 -12.972898 10.014669 0.000001 1.376935 11.336817 -4.677551 -1.839916 5.417747 0.000000 1.573652 12.956367 -4.832991 -1.430100 5.424103 -0.000001 1.770448 14.575971 3.561458 -0.574598 -1.765932 0.000001 -1.972158 6.720197 3.578313 -0.444525 -1.749472 -0.000000 -6.162767 20.999863 0.000000 0.000000 0.000006 6.140115 1.799555 12.877861 -15.354716 -1.608062 -0.104355 12.545027 0.058012 -3.431449 -32.084424 9.097862 -50.462138 25.447285 1.505625 -1.876403 -100.980221 1.263256 -4.085965 23.367516 -0.971299 0.877636 -0.498399 -42.814723 -33.347056 3.575468 -3.039441 -1.761883 4.000699 2.600101 6.896160 2.860401 -2.431558 -1.409455 17.558991 -15.741918 -0.261414 2.578939 -1.750721 -1.801521 7.135321 -9.189730 -12.209236 2.408976 -1.064222 -1.461149 0.000003 0.000000 -0.000029 11.356986 -4.439684 -1.306456 63.415772 65.824500 59.921939 3.215246 -0.624030 -0.390925 24.779877 46.567888 23.738712 2.938989 -0.560640 -0.735506 18.780025 41.234586 19.006552 2.552432 -0.483282 -0.779209 -0.000001 0.000003 0.000002 12.195560 -2.108770 -0.657234 52.221594 69.935331 46.733329 3.379937 -0.236207 -0.547410 23.477344 49.630142 18.004782 3.043917 -0.195060 -0.829649 19.921596 48.616720 15.725587 2.806619 -0.188473 -0.600738 0.000006 -0.000000 0.000003 12.563539 0.154886 -0.458855 32.688739 64.440595 27.383116 2.596558 -0.032338 -0.829806 32.164317 59.987140 24.910721 2.548326 -0.044838 -0.608360 17.724525 45.279581 11.393719 2.167867 -0.038959 -0.507792 -0.000010 0.000007 0.000007 11.341647 2.253335 -0.310504 88.778123 69.658634 71.934842 2.648842 0.120015 -0.669099 23.688088 53.097665 14.060724 2.075241 0.105182 -0.703849 16.794055 44.992932 9.117748 1.850767 0.097375 -0.684084 0.000008 -0.000009 0.000001 -6.140136 1.741403 12.877839 29.031347 2.517221 1.809487 -12.545014 -0.058129 -3.431365 -47.991129 -26.405481 49.887572 -25.447332 1.671033 -1.876472 54.967211 -4.492885 -3.490962 -23.367422 -0.912143 0.877648 -16.465262 -3.618370 -20.079663 -3.655276 -3.110014 -1.787810 2.512714 -2.443878 5.358467 -2.924307 -2.488101 -1.430264 -19.327443 16.429786 -0.320053 -2.528553 -1.706932 -1.776974 -3.935742 3.742895 -8.738033 -2.443381 -1.073472 -1.162315 -0.000005 0.000006 -0.000002 -11.888371 -4.755187 -1.247830 -50.700839 -67.717535 49.674473 -3.042252 -0.442821 -0.516431 -22.564293 -50.413503 21.605227 -2.738857 -0.392173 -0.708363 -17.257417 -45.691377 17.091085 -2.432563 -0.348510 -0.620790 0.000002 -0.000010 0.000014 -12.008343 -2.098396 -0.748553 -53.962589 -73.045151 50.865238 -3.442306 -0.287319 -0.415815 -19.374277 -48.619284 15.544710 -3.106203 -0.240106 -0.837667 -17.384962 -49.319577 14.836421 -2.855737 -0.227590 -0.605000 -0.000002 -0.000003 -0.000001 -12.328011 0.015786 -0.608975 -50.461602 -72.424970 47.355744 -2.763493 0.029512 -0.569160 -20.099828 -53.366242 12.833512 -2.573986 0.042480 -0.772364 -16.178065 -51.533221 9.928698 -2.323848 0.023420 -0.456849 -0.000007 0.000010 -0.000001 -11.463127 2.202616 -0.329400 -67.314267 -69.754932 54.520622 -2.569001 0.108838 -0.599863 -18.949159 -51.878951 10.732571 -2.016171 0.102766 -0.737006 -15.346354 -49.467737 8.409518 -1.796241 0.085250 -0.576556 -0.000012 -0.000002 -0.000003 8.078197 0.535865 -5.402380 16.299212 -10.630197 6.493817 3.743073 2.695449 -42.540524 10.618814 -1.187126 9.199245 3.359004 2.882239 -41.940845 0.620079 1.672209 19.034315 1.133367 -13.321880 -9.116425 -2.569228 5.662924 -48.148565 0.591574 -6.177374 -0.054443 0.000000 -0.000007 -0.000003 -8.078204 0.751761 -5.402401 24.470520 -12.848218 -89.776095 -3.743071 2.464508 -42.540489 -4.767901 10.654124 81.059544 -3.359003 2.968966 -41.940773 -1.793031 20.090310 9.833910 -1.133407 -13.416488 -9.116796 0.000004 -0.000004 0.209619 -0.591592 -6.151400 -0.054611 0.000002 -0.000001 -0.000003 
